<?xml version="1.0" encoding="utf-8"?>
<!-- Generator: Adobe Illustrator 21.1.0, SVG Export Plug-In . SVG Version: 6.00 Build 0)  -->
<svg version="1.1" id="Layer_1" xmlns="http://www.w3.org/2000/svg" xmlns:xlink="http://www.w3.org/1999/xlink" x="0px" y="0px"
	 viewBox="0 0 90.4 115.4" style="enable-background:new 0 0 90.4 115.4;" xml:space="preserve">
<style type="text/css">
	.st0{fill:#FFFFFF;}
</style>
<path class="st0" d="M51.9,78.9H34.2V30h17.7V78.9z M64.5,30v27l25.8-27H64.5z M43,115.4c15.6,0,28.2-12.7,28.2-28.3H14.8
	C14.8,102.7,27.4,115.4,43,115.4z M22.7,46.5c0-5.2-4.2-9.5-9.5-9.5c-5.2,0-9.5,4.2-9.5,9.5c0,5.2,4.2,9.5,9.5,9.5
	C18.4,56,22.7,51.8,22.7,46.5z M26.4,0H0v26.4h26.4V0z"/>
</svg>
